<?xml version="1.0" encoding="UTF-8" standalone="no"?>
<svg
   version="1.0"
   width="737.00793pt"
   height="737.00787pt"
   viewBox="0 0 737.00793 737.00787"
   preserveAspectRatio="xMidYMid meet"
   id="svg900"
   xmlns="http://www.w3.org/2000/svg"
   xmlns:svg="http://www.w3.org/2000/svg">
  <defs
     id="defs904" />
  <g
     transform="matrix(0.28539743,0,0,-0.28539743,8.9032055,793.62168)"
     fill="#000000"
     stroke="none"
     id="g1398">
    <path
       d="m 1020,2757 c -49,-16 -133,-102 -148,-153 -7,-23 -12,-66 -12,-97 v -56 l -253,-3 -254,-3 -40,-27 c -22,-15 -51,-44 -64,-65 -23,-36 -24,-49 -27,-225 l -4,-187 26,-26 c 17,-17 36,-25 60,-25 32,0 36,-3 40,-32 3,-18 19,-341 36,-718 17,-377 33,-703 36,-725 13,-83 63,-148 144,-184 44,-20 62,-21 700,-21 638,0 656,1 700,21 81,36 131,101 144,184 3,22 19,348 36,725 17,377 33,700 36,718 4,29 8,32 40,32 24,0 43,8 60,25 l 26,26 -4,188 c -3,184 -3,188 -30,228 -15,22 -44,51 -65,64 -37,23 -45,24 -290,27 l -253,3 v 56 c 0,31 -5,74 -12,97 -16,55 -99,138 -154,154 -53,15 -424,15 -474,-1 z m 455,-172 c 21,-20 25,-34 25,-80 v -55 h -240 -240 v 55 c 0,46 4,60 25,80 24,25 26,25 215,25 189,0 191,0 215,-25 z m 653,-307 c 8,-8 12,-49 12,-120 V 2050 H 1260 380 v 108 c 0,71 4,112 12,120 17,17 1719,17 1736,0 z m -115,-445 c -8,-133 -63,-1323 -63,-1362 0,-34 -6,-49 -29,-72 l -29,-29 h -626 c -443,0 -632,3 -650,11 -13,7 -29,23 -35,38 -5,14 -23,332 -40,706 -17,374 -33,699 -35,723 l -4,42 h 757 757 z"
       id="path1390" />
    <path
       d="m 805,1705 -25,-24 V 1130 579 l 25,-24 c 32,-33 78,-33 110,0 l 25,24 v 551 551 l -25,24 c -15,16 -36,25 -55,25 -19,0 -40,-9 -55,-25 z"
       id="path1392" />
    <path
       d="m 1205,1705 -25,-24 V 1130 579 l 25,-24 c 32,-33 78,-33 110,0 l 25,24 v 551 551 l -25,24 c -15,16 -36,25 -55,25 -19,0 -40,-9 -55,-25 z"
       id="path1394" />
    <path
       d="m 1605,1705 -25,-24 V 1130 579 l 25,-24 c 32,-33 78,-33 110,0 l 25,24 v 551 551 l -25,24 c -15,16 -36,25 -55,25 -19,0 -40,-9 -55,-25 z"
       id="path1396" />
  </g>
</svg>
