<?xml version="1.0" encoding="UTF-8" standalone="no"?>
<svg
   version="1.0"
   width="737.00793pt"
   height="737.00787pt"
   viewBox="0 0 737.00793 737.00787"
   preserveAspectRatio="xMidYMid meet"
   id="svg900"
   xmlns="http://www.w3.org/2000/svg"
   xmlns:svg="http://www.w3.org/2000/svg">
  <defs
     id="defs904" />
  <path
     d="M 549.41077,8.3722882 C 542.7277,10.802494 533.9182,14.144027 529.66534,16.270458 525.41248,18.396888 424.55893,117.42779 305.47883,236.5079 L 88.886714,452.49245 46.358107,582.50848 C 18.714513,666.04681 4.1332768,714.95471 5.3483798,719.51135 c 0.9113273,3.64531 5.1641882,8.80949 9.7208242,10.93592 7.290618,3.94909 16.707667,1.51888 138.825516,-39.18707 L 285.12585,647.82027 498.68022,434.56969 C 741.39717,192.4604 731.67635,204.00388 731.67635,157.82996 c 0,-36.14931 -6.98685,-48.60412 -57.10985,-97.815793 C 646.01146,31.459246 629.91134,17.789336 618.97542,13.2327 600.74887,5.0307548 566.72599,2.6005487 549.41077,8.3722882 Z m 52.85698,41.6172788 c 15.79634,7.290618 70.4761,59.540053 80.80447,77.462823 16.40389,27.94737 12.75859,51.3381 -12.4548,77.15904 l -16.10024,17.01144 -70.1722,-69.86842 -70.1722,-69.868428 14.58124,-13.366134 c 26.42849,-24.30206 48.30034,-29.770024 73.51373,-18.530321 z M 557.00516,182.13202 625.35471,250.48158 450.68365,425.15264 276.01258,599.8237 206.14415,529.95527 136.27573,460.08685 309.42792,286.93467 c 95.08181,-95.08182 174.36728,-173.15219 176.18994,-173.15219 1.82265,0 33.71911,30.68135 71.3873,68.34954 z M 236.82551,620.17667 c -1.21511,1.21511 -181.050354,61.36271 -181.050354,60.75516 0,-0.91133 57.109844,-172.24086 59.236274,-178.0126 1.2151,-3.03776 21.2643,14.88501 62.27403,55.89474 33.41533,33.41533 60.1476,61.05893 59.54005,61.3627 z"
     id="path1150"
     style="fill:#000000;stroke:none;stroke-width:0.303776" />
</svg>
