<?xml version="1.0" encoding="UTF-8" standalone="no"?>
<svg
   version="1.0"
   width="737.00793pt"
   height="737.00787pt"
   viewBox="0 0 737.00793 737.00787"
   preserveAspectRatio="xMidYMid meet"
   id="svg900"
   xmlns="http://www.w3.org/2000/svg"
   xmlns:svg="http://www.w3.org/2000/svg">
  <defs
     id="defs904" />
  <path
     d="m 341.19777,11.247834 c -15.92862,7.395429 -27.87508,21.048529 -34.13275,37.830464 -2.8444,8.248747 -3.69771,37.830462 -3.98215,128.851122 0,88.17627 -0.85332,119.18019 -3.41328,121.74015 -2.55995,2.55995 -33.56387,3.41327 -121.45569,3.41327 -127.713368,0.28444 -129.988884,0.56888 -149.899654,15.64418 -12.799781,9.95538 -23.8929239,32.71055 -23.8929239,49.77692 0,17.06638 11.0931429,39.82154 23.8929239,49.77693 19.91077,15.07529 22.186286,15.35973 149.899654,15.64417 87.89182,0 118.89574,0.85332 121.45569,3.41328 2.55996,2.55995 3.41328,33.56387 3.41328,121.74013 0.28444,127.42893 0.56888,129.70445 15.64417,149.61522 9.95539,12.79978 32.71055,23.89292 49.77693,23.89292 17.06637,0 39.82154,-11.09314 49.77692,-23.89292 15.0753,-19.91077 15.35974,-22.18629 15.64418,-149.61522 0,-88.17626 0.85332,-119.18018 3.41327,-121.74013 2.55996,-2.55996 33.56387,-3.41328 121.4557,-3.41328 127.71336,-0.28444 129.98888,-0.56888 149.89965,-15.64417 12.79978,-9.95539 23.89292,-32.71055 23.89292,-49.77693 0,-17.06637 -11.09314,-39.82154 -23.89292,-49.77692 -19.91077,-15.0753 -22.18629,-15.35974 -149.89965,-15.64418 -87.89183,0 -118.89574,-0.85332 -121.4557,-3.41327 -2.55995,-2.55996 -3.41327,-33.56388 -3.41327,-121.74015 C 433.64063,50.500495 433.35619,48.224979 418.28089,28.314209 408.32551,15.514428 385.57034,4.4212851 368.50397,4.4212851 c -7.39543,0 -18.77301,2.8443957 -27.3062,6.8265489 z"
     id="path1076"
     style="fill:#000000;stroke:none;stroke-width:0.28444" />
</svg>
