<?xml version="1.0" encoding="UTF-8" standalone="no"?>
<svg
   version="1.0"
   width="737.00793pt"
   height="737.00787pt"
   viewBox="0 0 737.00793 737.00787"
   preserveAspectRatio="xMidYMid meet"
   id="svg900"
   xmlns="http://www.w3.org/2000/svg"
   xmlns:svg="http://www.w3.org/2000/svg">
  <defs
     id="defs904" />
  <g
     transform="matrix(0.48998335,0,0,-0.48998335,-116.61477,820.08844)"
     fill="#000000"
     stroke="none"
     id="g954">
    <path
       d="M 920,1664 C 799,1643 766,1634 703,1609 487,1519 319,1322 263,1092 242,1004 242,836 263,748 329,476 546,259 818,193 c 92,-22 257,-21 347,2 276,70 480,274 550,550 23,90 24,255 2,347 -66,270 -286,492 -550,553 -67,15 -206,26 -247,19 z m 205,-229 c 135,-35 268,-140 332,-261 112,-210 75,-462 -92,-629 -208,-208 -542,-208 -750,0 -167,167 -204,419 -92,629 62,119 197,225 328,260 72,19 201,20 274,1 z"
       id="path950" />
    <path
       d="M 890,1224 C 663,1142 597,862 765,695 c 65,-66 125,-90 225,-90 100,0 160,24 225,90 66,65 90,125 90,225 0,100 -24,160 -90,225 -82,82 -222,116 -325,79 z"
       id="path952" />
  </g>
</svg>
